# xmcd
#
# Track frame offsets:
#	150
#	14125
#	28880
#	48990
#	60845
#	72610
#	89270
#	102770
#	122610
#	142395
#	151690
#	162065
#
# Disc length: 2343 seconds
#
# Revision: 0
# Processed by: cddbd v1.5.2PL0 Copyright (c) Steve Scherf et al.
# Submitted via: EasyCDDAExtractor 8.2.3.1
#
DISCID=9f09250c
DTITLE=Steve Thorpe - Trouble
DYEAR=2004
DGENRE=Blues
TTITLE0=I Don't Love You Baby
TTITLE1=Meet Me With Your Black Drawers On
TTITLE2=Someday After A White (You 'll Be Sorry)
TTITLE3=I Can't Be Satisfied
TTITLE4=(Come On Inside) Let The Good Time Roll
TTITLE5=Trouble
TTITLE6=Shoe
TTITLE7=Stay Away From The Gym
TTITLE8=She's 19 Years Old
TTITLE9=Drivin' With My Baby
TTITLE10=Lonely In The Middle Of Love
TTITLE11=Mean Old World
EXTD=
EXTT0=
EXTT1=
EXTT2=
EXTT3=
EXTT4=
EXTT5=
EXTT6=
EXTT7=
EXTT8=
EXTT9=
EXTT10=
EXTT11=
PLAYORDER=
